<?xml version="1.0" encoding="UTF-8"?>
<svg viewBox="0 0 837 837" xmlns="http://www.w3.org/2000/svg">
    <!-- Outer border/shadow -->
    <path fill="#000101" d="M4.38 693.47c-.15-4.13-.34-7.79-.34-11.45-.01-185.33-.02-370.67-.01-556C4.04 64.55 45.72 15.37 106.4 5.38c5.89-.97 11.94-1.29 17.92-1.3 186.5-.06 373-.19 559.5.06 40.23.05 72.57 17.04 97.09 48.95 1.69 2.2 3.7 4.29 5.91 5.95 26.53 19.98 42.45 46.36 47.91 79.07.38 2.28.25 4.65.25 6.98.01 191.5-.1 383-.86 574.5-.97 25.62-8.05 48.04-23 68.18-19.47 26.23-45.82 41.51-77.95 46.93-2.28.38-4.65.29-6.98.29-191.67.01-383.33-.09-575 .14-25.63.03-47.98-8.25-68.08-23.24-7.15-5.33-13.68-11.74-19.54-18.49-5.58-6.43-11.44-12.33-17.94-17.84C21.44 754.2 7.63 726.76 4.38 693.47z"/>

    <!-- Main background with solid fill -->
    <path fill="#FF6B6B" d="M750.59 49.39c22.34 20.73 33.43 46.01 33.43 76.15 0 185.65.02 371.29-.01 556.94-.01 50.54-33.56 90.9-83.25 100.13-5.04.94-10.26 1.35-15.4 1.35-187.48.07-374.96.13-562.44.01-50.11-.03-92.66-38.61-98.06-88.35-.5-4.62-.81-9.29-.81-13.94.04-185.15.04-370.29.03-555.44C24.04 75.26 57.17 35.12 107.25 25.54c5.36-1.03 10.92-1.45 16.39-1.45 186.98-.07 373.96-.11 560.94.01 24.96.01 46.87 8.76 66.01 25.31z"/>

    <!-- Scaled up content group -->
    <g transform="translate(705, 705) scale(2) translate(-418.5, -418.5)">
        <!-- Rounded 'N' with bold stroke -->
        <path fill="white" stroke="#000000" stroke-width="8" d="M138 394V138c0-12 9.8-20 20-20h24c8 0 15 4 19 10l128 192V138c0-12 9.8-20 20-20h24c12 0 20 8 20 20v256c0 12-9.8 20-20 20h-24c-8 0-15-4-19-10L202 192v202c0 12-9.8 20-20 20h-24c-12 0-20-8-20-20z"/>

        <!-- Cards stack with brutalist shadows -->
        <g transform="translate(246, 246) rotate(-15) translate(-246, -246)">
            <rect x="310" y="182" width="128" height="96" rx="8"
                  fill="#FFE066" stroke="#000000" stroke-width="4"/>
        </g>

        <g transform="translate(246, 246) rotate(-5) translate(-246, -246)">
            <rect x="310" y="182" width="128" height="96" rx="8"
                  fill="#4ECDC4" stroke="#000000" stroke-width="4"/>
        </g>

        <rect x="310" y="182" width="128" height="96" rx="8"
              fill="pink" stroke="#000000" stroke-width="4"/>
    </g>
</svg>